<svg width="77" height="58" version="1.1" xmlns="http://www.w3.org/2000/svg" desc="Created with imagetracer.js version 1.2.6" ><path fill="rgb(0,0,0)" stroke="rgb(0,0,0)" stroke-width="1" opacity="0" d="M 0 0 L 38 0.5 L 37 1.5 L 36 10.5 L 33 19.5 L 30 24.5 L 30 27 Q 27.33 25.87 28 28.5 Q 26.75 31.25 21.5 30 L 17 25.5 L 17 23.5 Q 14.5 22.5 15 20 L 13 20.5 L 13 33.5 L 11.5 34 L 10 37 L 1.5 37 L 0 35.5 L 0 0 Z " /><path fill="rgb(0,0,0)" stroke="rgb(0,0,0)" stroke-width="1" opacity="0" d="M 40 0 L 77 0 L 77 36 L 74.5 37 L 68.5 37 L 64 31.5 L 62 25.5 L 62 22.5 L 60.5 20 L 59 21.5 L 59 23.5 L 56 29.5 L 53.5 32 L 50 31 L 44 19.5 L 44 15.5 L 41 8.5 L 41 4.5 Q 39 3.37 40 0 Z " /><path fill="rgb(0,0,0)" stroke="rgb(0,0,0)" stroke-width="1" opacity="0" d="M 76.5 38 L 77 58 L 0.5 58 L 0 57.5 L 0 41.5 L 1 41.5 L 2 48 L 6.5 47 L 9.5 45 L 13.5 45 L 18.5 43 L 28.5 42 L 29.5 41 L 47.5 41 L 48.5 42 L 53.5 42 L 62.5 45 L 66.5 45 L 75 48 L 75 42.5 L 76.5 38 Z " /><path fill="rgb(139,138,138)" stroke="rgb(139,138,138)" stroke-width="1" opacity="0.20392156862745098" d="M 38 0 Q 41.33 -1.31 40 3.5 Q 41.75 4.25 41 7.5 L 40 7.5 Q 40.56 3.44 38.5 2 L 36.5 10 L 36 6.5 L 37 5.5 L 37 2.5 L 38 0 Z " /><path fill="rgb(139,138,138)" stroke="rgb(139,138,138)" stroke-width="1" opacity="0.20392156862745098" d="M 41.5 9 L 44 18.5 L 43 18.5 L 42 12.5 L 41 11.5 L 41.5 9 Z " /><path fill="rgb(139,138,138)" stroke="rgb(139,138,138)" stroke-width="1" opacity="0.20392156862745098" d="M 35.5 11 L 36 12.5 L 35 12.5 L 35.5 11 Z " /><path fill="rgb(139,138,138)" stroke="rgb(139,138,138)" stroke-width="1" opacity="0.20392156862745098" d="M 34.5 14 L 35 16.5 L 32.5 22 L 32 20.5 L 34.5 14 Z " /><path fill="rgb(139,138,138)" stroke="rgb(139,138,138)" stroke-width="1" opacity="0.20392156862745098" d="M 44.5 20 L 47 25.5 L 46 25.5 L 44 21.5 L 44.5 20 Z " /><path fill="rgb(139,138,138)" stroke="rgb(139,138,138)" stroke-width="1" opacity="0.20392156862745098" d="M 31.5 23 L 31 24.5 L 30.5 26 L 30 24.5 L 31.5 23 Z " /><path fill="rgb(139,138,138)" stroke="rgb(139,138,138)" stroke-width="1" opacity="0.20392156862745098" d="M 29.5 27 L 30 27.5 L 27.5 30 L 27 29.5 L 29.5 27 Z " /><path fill="rgb(139,138,138)" stroke="rgb(139,138,138)" stroke-width="1" opacity="0.20392156862745098" d="M 47.5 27 L 50 30.5 L 49 30.5 L 47 27.5 L 47.5 27 Z " /><path fill="rgb(139,138,138)" stroke="rgb(139,138,138)" stroke-width="1" opacity="0.20392156862745098" d="M 49.5 41 L 49.5 42 L 49.5 41 Z " /><path fill="rgb(154,152,152)" stroke="rgb(154,152,152)" stroke-width="1" opacity="0.6745098039215687" d="M 38.5 2 L 40 4.5 Q 39 6 38 3.5 L 38.5 2 Z " /><path fill="rgb(154,152,152)" stroke="rgb(154,152,152)" stroke-width="1" opacity="0.6745098039215687" d="M 37.5 6 L 38 7.5 L 37 7.5 L 37.5 6 Z " /><path fill="rgb(154,152,152)" stroke="rgb(154,152,152)" stroke-width="1" opacity="0.6745098039215687" d="M 40.5 8 L 40.5 9 L 40.5 8 Z " /><path fill="rgb(154,152,152)" stroke="rgb(154,152,152)" stroke-width="1" opacity="0.6745098039215687" d="M 36.5 10 L 37 11.5 L 36 11.5 L 36.5 10 Z " /><path fill="rgb(154,152,152)" stroke="rgb(154,152,152)" stroke-width="1" opacity="0.6745098039215687" d="M 41.5 12 L 41.5 13 L 41.5 12 Z " /><path fill="rgb(154,152,152)" stroke="rgb(154,152,152)" stroke-width="1" opacity="0.6745098039215687" d="M 35.5 13 L 36 15.5 L 35 15.5 L 35.5 13 Z " /><path fill="rgb(154,152,152)" stroke="rgb(154,152,152)" stroke-width="1" opacity="0.6745098039215687" d="M 42.5 16 L 42.5 17 L 42.5 16 Z " /><path fill="rgb(154,152,152)" stroke="rgb(154,152,152)" stroke-width="1" opacity="0.6745098039215687" d="M 34.5 17 L 34.5 18 L 34.5 17 Z " /><path fill="rgb(154,152,152)" stroke="rgb(154,152,152)" stroke-width="1" opacity="0.6745098039215687" d="M 33.5 20 L 33.5 21 L 33.5 20 Z " /><path fill="rgb(154,152,152)" stroke="rgb(154,152,152)" stroke-width="1" opacity="0.6745098039215687" d="M 32.5 22 L 33 23.5 Q 32 26 31 24.5 L 32.5 22 Z " /><path fill="rgb(154,152,152)" stroke="rgb(154,152,152)" stroke-width="1" opacity="0.6745098039215687" d="M 45.5 24 L 45.5 25 L 45.5 24 Z " /><path fill="rgb(154,152,152)" stroke="rgb(154,152,152)" stroke-width="1" opacity="0.6745098039215687" d="M 30.5 26 L 30.5 27 L 30.5 26 Z " /><path fill="rgb(154,152,152)" stroke="rgb(154,152,152)" stroke-width="1" opacity="0.6745098039215687" d="M 28.5 29 L 28.5 30 L 28.5 29 Z " /><path fill="rgb(154,152,152)" stroke="rgb(154,152,152)" stroke-width="1" opacity="0.6745098039215687" d="M 25.5 31 L 25.5 32 L 25.5 31 Z " /><path fill="rgb(154,152,152)" stroke="rgb(154,152,152)" stroke-width="1" opacity="0.6745098039215687" d="M 31.5 40 L 44 40.5 L 31.5 41 L 31.5 40 Z " /><path fill="rgb(119,117,118)" stroke="rgb(119,117,118)" stroke-width="1" opacity="0.9686274509803922" d="M 45.5 25 L 51 32.5 L 51 41 L 44 40.5 L 45 39.5 L 45.5 25 Z " /><path fill="rgb(205,204,205)" stroke="rgb(205,204,205)" stroke-width="1" opacity="0.2" d="M 13 20 Q 15.67 18.88 15 21.5 Q 17 27 21.5 30 L 27 30.5 L 23.5 32 L 16 25.5 L 14.5 23 L 13.5 25 L 13 20 Z " /><path fill="rgb(205,204,205)" stroke="rgb(205,204,205)" stroke-width="1" opacity="0.2" d="M 13 26 Q 16 24.75 15 28.5 L 13.5 33 L 13 26 Z " /><path fill="rgb(205,204,205)" stroke="rgb(205,204,205)" stroke-width="1" opacity="0.2" d="M 12.5 34 L 13 34.5 L 10.5 37 L 10 36.5 L 12.5 34 Z " /><path fill="rgb(205,204,205)" stroke="rgb(205,204,205)" stroke-width="1" opacity="0.2" d="M 24.5 41 L 29 41.5 L 24.5 42 L 24.5 41 Z " /><path fill="rgb(205,204,205)" stroke="rgb(205,204,205)" stroke-width="1" opacity="0.2" d="M 18.5 42 L 23 42.5 L 10.5 45 L 10.5 44 L 17.5 43 L 18.5 42 Z " /><path fill="rgb(205,204,205)" stroke="rgb(205,204,205)" stroke-width="1" opacity="0.2" d="M 2.5 47 L 2.5 48 L 2.5 47 Z " /><path fill="rgb(148,146,146)" stroke="rgb(148,146,146)" stroke-width="1" opacity="0.996078431372549" d="M 38.5 4 Q 41.25 5.25 39 6.5 L 39 39.5 Q 38.96 40.38 36 40 L 36 12.5 L 37 11.5 L 38.5 4 Z " /><path fill="rgb(136,134,134)" stroke="rgb(136,134,134)" stroke-width="1" opacity="0.9882352941176471" d="M 39.5 6 L 42 13.5 L 42 40 Q 39.04 40.38 39 39.5 L 39.5 6 Z " /><path fill="rgb(174,173,173)" stroke="rgb(174,173,173)" stroke-width="1" opacity="0.9803921568627451" d="M 30.5 27 L 30 28.5 L 30 39.5 L 31 40.5 L 26 41 L 26 31.5 L 27.5 30 Q 29.75 30.75 29 28.5 L 30.5 27 Z " /><path fill="rgb(161,159,159)" stroke="rgb(161,159,159)" stroke-width="1" opacity="0.996078431372549" d="M 33.5 21 L 34 40 L 30 40 L 30 28.5 L 33.5 21 Z " /><path fill="rgb(132,130,131)" stroke="rgb(132,130,131)" stroke-width="1" opacity="1" d="M 42.5 17 L 45 22.5 L 45 40 Q 42.04 40.38 42 39.5 L 42.5 17 Z " /><path fill="rgb(96,93,94)" stroke="rgb(96,93,94)" stroke-width="1" opacity="0.4196078431372549" d="M 43.5 15 L 43.5 16 L 43.5 15 Z " /><path fill="rgb(96,93,94)" stroke="rgb(96,93,94)" stroke-width="1" opacity="0.4196078431372549" d="M 60.5 21 L 60.5 22 L 60.5 21 Z " /><path fill="rgb(96,93,94)" stroke="rgb(96,93,94)" stroke-width="1" opacity="0.4196078431372549" d="M 59.5 23 L 59.5 24 L 59.5 23 Z " /><path fill="rgb(96,93,94)" stroke="rgb(96,93,94)" stroke-width="1" opacity="0.4196078431372549" d="M 58.5 25 L 59 26.5 L 56 30.5 L 56 32 L 51.5 33 Q 49 32 50.5 31 L 53.5 32 Q 57.2 29.7 58.5 25 Z " /><path fill="rgb(96,93,94)" stroke="rgb(96,93,94)" stroke-width="1" opacity="0.4196078431372549" d="M 61.5 25 L 61.5 26 L 61.5 25 Z " /><path fill="rgb(96,93,94)" stroke="rgb(96,93,94)" stroke-width="1" opacity="0.4196078431372549" d="M 48.5 29 L 48.5 30 L 48.5 29 Z " /><path fill="rgb(96,93,94)" stroke="rgb(96,93,94)" stroke-width="1" opacity="0.4196078431372549" d="M 62.5 29 L 62.5 30 L 62.5 29 Z " /><path fill="rgb(96,93,94)" stroke="rgb(96,93,94)" stroke-width="1" opacity="0.4196078431372549" d="M 63.5 31 L 63.5 32 L 63.5 31 Z " /><path fill="rgb(96,93,94)" stroke="rgb(96,93,94)" stroke-width="1" opacity="0.4196078431372549" d="M 64.5 33 L 64.5 34 L 64.5 33 Z " /><path fill="rgb(96,93,94)" stroke="rgb(96,93,94)" stroke-width="1" opacity="0.4196078431372549" d="M 48.5 41 L 48.5 42 L 48.5 41 Z " /><path fill="rgb(96,93,94)" stroke="rgb(96,93,94)" stroke-width="1" opacity="0.4196078431372549" d="M 50.5 41 L 54 41.5 L 50.5 42 L 50.5 41 Z " /><path fill="rgb(96,93,94)" stroke="rgb(96,93,94)" stroke-width="1" opacity="0.4196078431372549" d="M 55.5 42 L 59 42.5 L 55.5 43 L 55.5 42 Z " /><path fill="rgb(96,93,94)" stroke="rgb(96,93,94)" stroke-width="1" opacity="0.4196078431372549" d="M 62.5 43 L 62.5 44 L 62.5 43 Z " /><path fill="rgb(94,91,92)" stroke="rgb(94,91,92)" stroke-width="1" opacity="0.9764705882352941" d="M 58.5 27 L 59 42 L 51 41 L 51 33 L 53.5 33 L 56 32 L 58.5 27 Z " /><path fill="rgb(77,74,74)" stroke="rgb(77,74,74)" stroke-width="1" opacity="0.9725490196078431" d="M 60.5 22 L 62 29.5 L 66 35.5 L 66 44 L 59 43 L 59 24.5 L 60.5 22 Z " /><path fill="rgb(52,49,50)" stroke="rgb(52,49,50)" stroke-width="1" opacity="0.9490196078431372" d="M 66.5 36 Q 67.75 39.25 73.5 38 L 76 37 L 73.5 47 L 67.5 45 L 66 43.5 L 66.5 36 Z " /><path fill="rgb(247,247,247)" stroke="rgb(247,247,247)" stroke-width="1" opacity="0.1803921568627451" d="M 16.5 23 L 16.5 24 L 16.5 23 Z " /><path fill="rgb(247,247,247)" stroke="rgb(247,247,247)" stroke-width="1" opacity="0.1803921568627451" d="M 13.5 25 L 13.5 26 L 13.5 25 Z " /><path fill="rgb(247,247,247)" stroke="rgb(247,247,247)" stroke-width="1" opacity="0.1803921568627451" d="M 28.5 27 L 28.5 28 L 28.5 27 Z " /><path fill="rgb(247,247,247)" stroke="rgb(247,247,247)" stroke-width="1" opacity="0.1803921568627451" d="M 11.5 34 Q 13 35 10.5 36 Q 9 35 11.5 34 Z " /><path fill="rgb(247,247,247)" stroke="rgb(247,247,247)" stroke-width="1" opacity="0.1803921568627451" d="M 0.5 36 L 1.5 37 L 9 37.5 L 1 38 L 2 40.5 L 2 44.5 L 3.5 46 L 8.5 45 L 8.5 46 L 3.5 48 L 1 44.5 Q 1.75 41.25 0 40.5 L 0.5 36 Z " /><path fill="rgb(235,235,235)" stroke="rgb(235,235,235)" stroke-width="1" opacity="0.9411764705882353" d="M 11.5 36 L 12 44 L 6.5 46 L 3.5 46 L 2 44.5 L 2 40.5 L 1 38 L 8.5 38 L 11.5 36 Z " /><path fill="rgb(207,206,206)" stroke="rgb(207,206,206)" stroke-width="1" opacity="0.9529411764705882" d="M 14.5 23 L 21 30.5 L 20 31.5 L 20 40.5 L 20.5 42 L 13.5 43 L 12.5 44 L 12 35.5 L 14 32.5 L 15 26.5 Q 13.08 25.58 14.5 23 Z " /><path fill="rgb(187,186,186)" stroke="rgb(187,186,186)" stroke-width="1" opacity="0.984313725490196" d="M 20 31 L 26 32 L 26 40.5 L 24.5 41 L 21.5 42 L 20 40.5 L 20 31 Z " /><path fill="rgb(156,154,154)" stroke="rgb(156,154,154)" stroke-width="1" opacity="1" d="M 35.5 16 L 36 40 L 34 39.5 L 34 18.5 L 35.5 16 Z " /><path fill="rgb(59,56,56)" stroke="rgb(59,56,56)" stroke-width="1" opacity="0.18823529411764706" d="M 37.5 1 L 37.5 2 L 37.5 1 Z " /><path fill="rgb(59,56,56)" stroke="rgb(59,56,56)" stroke-width="1" opacity="0.18823529411764706" d="M 60.5 20 L 60 21.5 L 59.5 23 L 59 21.5 L 60.5 20 Z " /><path fill="rgb(59,56,56)" stroke="rgb(59,56,56)" stroke-width="1" opacity="0.18823529411764706" d="M 31.5 22 L 31.5 23 L 31.5 22 Z " /><path fill="rgb(59,56,56)" stroke="rgb(59,56,56)" stroke-width="1" opacity="0.18823529411764706" d="M 61.5 22 L 62 24.5 L 61 24.5 L 61.5 22 Z " /><path fill="rgb(59,56,56)" stroke="rgb(59,56,56)" stroke-width="1" opacity="0.18823529411764706" d="M 58.5 24 L 58.5 25 L 58.5 24 Z " /><path fill="rgb(59,56,56)" stroke="rgb(59,56,56)" stroke-width="1" opacity="0.18823529411764706" d="M 57.5 26 L 57.5 27 L 57.5 26 Z " /><path fill="rgb(59,56,56)" stroke="rgb(59,56,56)" stroke-width="1" opacity="0.18823529411764706" d="M 62.5 26 L 64 30.5 L 63 30.5 Q 61.25 28.75 62.5 26 Z " /><path fill="rgb(59,56,56)" stroke="rgb(59,56,56)" stroke-width="1" opacity="0.18823529411764706" d="M 56.5 28 L 56.5 29 L 56.5 28 Z " /><path fill="rgb(59,56,56)" stroke="rgb(59,56,56)" stroke-width="1" opacity="0.18823529411764706" d="M 51.5 31 L 51.5 32 L 51.5 31 Z " /><path fill="rgb(59,56,56)" stroke="rgb(59,56,56)" stroke-width="1" opacity="0.18823529411764706" d="M 64.5 32 L 64.5 33 L 64.5 32 Z " /><path fill="rgb(59,56,56)" stroke="rgb(59,56,56)" stroke-width="1" opacity="0.18823529411764706" d="M 65.5 34 L 68.5 37 L 74 37.5 L 68.5 38 L 65 34.5 L 65.5 34 Z " /><path fill="rgb(59,56,56)" stroke="rgb(59,56,56)" stroke-width="1" opacity="0.18823529411764706" d="M 75.5 36 Q 77.75 35.25 77 37.5 L 76.5 38 Q 74 37 75.5 36 Z " /><path fill="rgb(59,56,56)" stroke="rgb(59,56,56)" stroke-width="1" opacity="0.18823529411764706" d="M 75.5 39 L 76 41.5 L 75 41.5 L 75.5 39 Z " /><path fill="rgb(59,56,56)" stroke="rgb(59,56,56)" stroke-width="1" opacity="0.18823529411764706" d="M 54.5 42 L 54.5 43 L 54.5 42 Z " /><path fill="rgb(59,56,56)" stroke="rgb(59,56,56)" stroke-width="1" opacity="0.18823529411764706" d="M 58.5 43 L 66.5 44 L 73.5 47 L 74.5 43 L 75 48 L 66.5 45 L 58.5 44 L 58.5 43 Z " /></svg>